<mxfile host="app.diagrams.net" modified="2024-04-23T07:14:02.742Z" agent="Mozilla/5.0 (Windows NT 10.0; Win64; x64) AppleWebKit/537.36 (KHTML, like Gecko) Chrome/124.0.0.0 Safari/537.36" etag="ckQ-0zKq0BAq_I-wqyy6" version="24.2.8" type="device">
  <diagram name="Page-1" id="Me-QUAN0HTmwl5T7O3nE">
    <mxGraphModel dx="724" dy="420" grid="1" gridSize="10" guides="1" tooltips="1" connect="1" arrows="1" fold="1" page="1" pageScale="1" pageWidth="850" pageHeight="1100" background="#000000" math="0" shadow="0">
      <root>
        <mxCell id="0" />
        <mxCell id="1" parent="0" />
        <mxCell id="mpzAm1A_sCC70lDFtnIx-16" style="edgeStyle=orthogonalEdgeStyle;rounded=0;orthogonalLoop=1;jettySize=auto;html=1;exitX=0.5;exitY=1;exitDx=0;exitDy=0;exitPerimeter=0;entryX=0.5;entryY=0;entryDx=0;entryDy=0;strokeColor=#FFFFFF;strokeWidth=3;" parent="1" source="mpzAm1A_sCC70lDFtnIx-1" target="mpzAm1A_sCC70lDFtnIx-3" edge="1">
          <mxGeometry relative="1" as="geometry" />
        </mxCell>
        <mxCell id="mpzAm1A_sCC70lDFtnIx-1" value="&lt;span style=&quot;color: rgb(255, 255, 255); font-size: 16px; text-wrap: wrap;&quot;&gt;Execute Edit Journal Function&lt;/span&gt;" style="verticalLabelPosition=middle;verticalAlign=middle;html=1;shape=mxgraph.flowchart.on-page_reference;fillColor=#000000;strokeColor=#FFFFFF;strokeWidth=10;labelPosition=center;align=center;fontSize=16;" parent="1" vertex="1">
          <mxGeometry x="370" y="10" width="110" height="110" as="geometry" />
        </mxCell>
        <mxCell id="mpzAm1A_sCC70lDFtnIx-2" style="edgeStyle=orthogonalEdgeStyle;rounded=0;orthogonalLoop=1;jettySize=auto;html=1;exitX=0.5;exitY=1;exitDx=0;exitDy=0;entryX=0.5;entryY=0;entryDx=0;entryDy=0;strokeColor=#FFFFFF;strokeWidth=3;" parent="1" source="mpzAm1A_sCC70lDFtnIx-3" target="mpzAm1A_sCC70lDFtnIx-6" edge="1">
          <mxGeometry relative="1" as="geometry" />
        </mxCell>
        <mxCell id="mpzAm1A_sCC70lDFtnIx-3" value="&lt;div style=&quot;display: flex; justify-content: center; text-align: center; align-items: baseline; line-height: 1.25; margin-top: -2px;&quot;&gt;&lt;font style=&quot;&quot;&gt;&lt;span style=&quot;font-size: 17px;&quot;&gt;Input Journal Choice&lt;/span&gt;&lt;br&gt;&lt;/font&gt;&lt;/div&gt;" style="html=1;overflow=block;blockSpacing=1;whiteSpace=wrap;fontSize=13;spacing=3.8;strokeColor=#006EAF;rounded=1;absoluteArcSize=1;arcSize=9;fillColor=#1ba1e2;strokeWidth=NaN;lucidId=W1avhproO7Pp;fontColor=#ffffff;" parent="1" vertex="1">
          <mxGeometry x="351.85" y="160" width="146.5" height="90" as="geometry" />
        </mxCell>
        <mxCell id="mpzAm1A_sCC70lDFtnIx-4" style="edgeStyle=orthogonalEdgeStyle;rounded=0;orthogonalLoop=1;jettySize=auto;html=1;exitX=0.5;exitY=1;exitDx=0;exitDy=0;entryX=0.5;entryY=0;entryDx=0;entryDy=0;fillColor=#008a00;strokeColor=#005700;strokeWidth=3;" parent="1" source="mpzAm1A_sCC70lDFtnIx-6" target="mpzAm1A_sCC70lDFtnIx-8" edge="1">
          <mxGeometry relative="1" as="geometry" />
        </mxCell>
        <mxCell id="mpzAm1A_sCC70lDFtnIx-5" value="&lt;span style=&quot;&quot;&gt;Valid Input&lt;/span&gt;" style="edgeLabel;html=1;align=center;verticalAlign=middle;resizable=0;points=[];fontColor=#FFFFFF;labelBackgroundColor=#000000;" parent="mpzAm1A_sCC70lDFtnIx-4" vertex="1" connectable="0">
          <mxGeometry x="-0.4708" y="1" relative="1" as="geometry">
            <mxPoint x="-1" y="5" as="offset" />
          </mxGeometry>
        </mxCell>
        <mxCell id="mpzAm1A_sCC70lDFtnIx-6" value="&lt;span style=&quot;font-size: 12px;&quot;&gt;Input Check&lt;/span&gt;" style="html=1;overflow=block;blockSpacing=1;whiteSpace=wrap;rhombus;fontSize=16.7;fontColor=#ffffff;spacing=3.8;strokeColor=#006EAF;rounded=1;absoluteArcSize=1;arcSize=9;fillColor=#1ba1e2;strokeWidth=NaN;lucidId=x_avSaIK2IV_;" parent="1" vertex="1">
          <mxGeometry x="377.24" y="290" width="95.72" height="72" as="geometry" />
        </mxCell>
        <mxCell id="mpzAm1A_sCC70lDFtnIx-7" style="edgeStyle=orthogonalEdgeStyle;rounded=0;orthogonalLoop=1;jettySize=auto;html=1;exitX=0.5;exitY=1;exitDx=0;exitDy=0;entryX=0.5;entryY=0;entryDx=0;entryDy=0;strokeColor=#FFFFFF;strokeWidth=3;" parent="1" source="sAepfwaUwmaz3PS5DYTx-1" target="mpzAm1A_sCC70lDFtnIx-10" edge="1">
          <mxGeometry relative="1" as="geometry" />
        </mxCell>
        <mxCell id="mpzAm1A_sCC70lDFtnIx-8" value="Display Edit Menu" style="html=1;overflow=block;blockSpacing=1;whiteSpace=wrap;fontSize=17;spacing=3.8;strokeColor=#006EAF;rounded=1;absoluteArcSize=1;arcSize=9;fillColor=#1ba1e2;strokeWidth=NaN;lucidId=xdbvFR-ZrNtJ;fontColor=#ffffff;" parent="1" vertex="1">
          <mxGeometry x="357" y="406" width="137" height="90" as="geometry" />
        </mxCell>
        <mxCell id="mpzAm1A_sCC70lDFtnIx-9" style="edgeStyle=orthogonalEdgeStyle;rounded=0;orthogonalLoop=1;jettySize=auto;html=1;exitX=0.5;exitY=1;exitDx=0;exitDy=0;entryX=0.5;entryY=0;entryDx=0;entryDy=0;fillColor=#008a00;strokeColor=#005700;strokeWidth=3;" parent="1" source="mpzAm1A_sCC70lDFtnIx-10" target="mpzAm1A_sCC70lDFtnIx-12" edge="1">
          <mxGeometry relative="1" as="geometry" />
        </mxCell>
        <mxCell id="sAepfwaUwmaz3PS5DYTx-3" value="Valid Input" style="edgeLabel;html=1;align=center;verticalAlign=middle;resizable=0;points=[];fontColor=#FFFFFF;labelBackgroundColor=#000000;" vertex="1" connectable="0" parent="mpzAm1A_sCC70lDFtnIx-9">
          <mxGeometry x="-0.5059" y="1" relative="1" as="geometry">
            <mxPoint y="3" as="offset" />
          </mxGeometry>
        </mxCell>
        <mxCell id="mpzAm1A_sCC70lDFtnIx-10" value="&lt;span style=&quot;font-size: 12px;&quot;&gt;Input Check&lt;/span&gt;" style="html=1;overflow=block;blockSpacing=1;whiteSpace=wrap;rhombus;fontSize=16.7;fontColor=#ffffff;spacing=3.8;strokeColor=#006EAF;rounded=1;absoluteArcSize=1;arcSize=9;fillColor=#1ba1e2;strokeWidth=NaN;lucidId=x_avSaIK2IV_;" parent="1" vertex="1">
          <mxGeometry x="373" y="642" width="103.71" height="78" as="geometry" />
        </mxCell>
        <mxCell id="mpzAm1A_sCC70lDFtnIx-11" style="edgeStyle=orthogonalEdgeStyle;rounded=0;orthogonalLoop=1;jettySize=auto;html=1;exitX=0.5;exitY=1;exitDx=0;exitDy=0;entryX=0.5;entryY=0;entryDx=0;entryDy=0;strokeColor=#FFFFFF;strokeWidth=3;" parent="1" source="mpzAm1A_sCC70lDFtnIx-12" target="mpzAm1A_sCC70lDFtnIx-13" edge="1">
          <mxGeometry relative="1" as="geometry" />
        </mxCell>
        <mxCell id="mpzAm1A_sCC70lDFtnIx-12" value="Edit Selected Option on Journal" style="html=1;overflow=block;blockSpacing=1;whiteSpace=wrap;fontSize=17;spacing=3.8;strokeColor=#006EAF;rounded=1;absoluteArcSize=1;arcSize=9;fillColor=#1ba1e2;strokeWidth=NaN;lucidId=xdbvFR-ZrNtJ;fontColor=#ffffff;" parent="1" vertex="1">
          <mxGeometry x="356.6" y="760" width="137" height="90" as="geometry" />
        </mxCell>
        <mxCell id="mpzAm1A_sCC70lDFtnIx-13" value="Save Edited Journal Data to Database" style="html=1;overflow=block;blockSpacing=1;whiteSpace=wrap;fontSize=17;spacing=3.8;strokeColor=#006EAF;rounded=1;absoluteArcSize=1;arcSize=9;fillColor=#1ba1e2;strokeWidth=NaN;lucidId=xdbvFR-ZrNtJ;fontColor=#ffffff;" parent="1" vertex="1">
          <mxGeometry x="357" y="880" width="137" height="90" as="geometry" />
        </mxCell>
        <mxCell id="mpzAm1A_sCC70lDFtnIx-14" value="Journal&lt;div&gt;Data&lt;/div&gt;" style="strokeWidth=2;html=1;shape=mxgraph.flowchart.database;whiteSpace=wrap;" parent="1" vertex="1">
          <mxGeometry x="550" y="875" width="91" height="100" as="geometry" />
        </mxCell>
        <mxCell id="mpzAm1A_sCC70lDFtnIx-15" style="edgeStyle=orthogonalEdgeStyle;rounded=0;orthogonalLoop=1;jettySize=auto;html=1;exitX=1;exitY=0.5;exitDx=0;exitDy=0;entryX=0;entryY=0.5;entryDx=0;entryDy=0;entryPerimeter=0;strokeColor=#FFFFFF;strokeWidth=3;" parent="1" source="mpzAm1A_sCC70lDFtnIx-13" target="mpzAm1A_sCC70lDFtnIx-14" edge="1">
          <mxGeometry relative="1" as="geometry">
            <mxPoint x="323.1" y="1062" as="sourcePoint" />
            <mxPoint x="323.1" y="1092" as="targetPoint" />
          </mxGeometry>
        </mxCell>
        <mxCell id="mpzAm1A_sCC70lDFtnIx-17" value="&lt;span style=&quot;color: rgb(255, 255, 255); font-size: 17px; text-wrap: wrap;&quot;&gt;Main Menu&lt;/span&gt;" style="verticalLabelPosition=middle;verticalAlign=middle;html=1;shape=mxgraph.flowchart.on-page_reference;fillColor=#000000;strokeColor=#FFFFFF;strokeWidth=10;labelPosition=center;align=center;" parent="1" vertex="1">
          <mxGeometry x="10" y="625" width="110" height="110" as="geometry" />
        </mxCell>
        <mxCell id="mpzAm1A_sCC70lDFtnIx-18" style="edgeStyle=orthogonalEdgeStyle;rounded=0;orthogonalLoop=1;jettySize=auto;html=1;exitX=0;exitY=0.5;exitDx=0;exitDy=0;entryX=1;entryY=0.5;entryDx=0;entryDy=0;entryPerimeter=0;strokeColor=#FF0000;strokeWidth=3;" parent="1" source="mpzAm1A_sCC70lDFtnIx-6" target="mpzAm1A_sCC70lDFtnIx-17" edge="1">
          <mxGeometry relative="1" as="geometry">
            <Array as="points">
              <mxPoint x="170" y="326" />
              <mxPoint x="170" y="680" />
              <mxPoint x="120" y="680" />
            </Array>
          </mxGeometry>
        </mxCell>
        <mxCell id="mpzAm1A_sCC70lDFtnIx-19" value="&lt;span style=&quot;&quot;&gt;Invalid Input&lt;/span&gt;" style="edgeLabel;html=1;align=center;verticalAlign=middle;resizable=0;points=[];fontColor=#FFFFFF;labelBackgroundColor=#000000;" parent="mpzAm1A_sCC70lDFtnIx-18" vertex="1" connectable="0">
          <mxGeometry x="-0.5565" y="-5" relative="1" as="geometry">
            <mxPoint x="29" y="5" as="offset" />
          </mxGeometry>
        </mxCell>
        <mxCell id="mpzAm1A_sCC70lDFtnIx-20" style="edgeStyle=orthogonalEdgeStyle;rounded=0;orthogonalLoop=1;jettySize=auto;html=1;exitX=0;exitY=0.5;exitDx=0;exitDy=0;entryX=1;entryY=0.5;entryDx=0;entryDy=0;entryPerimeter=0;strokeColor=#FF0000;strokeWidth=3;" parent="1" source="mpzAm1A_sCC70lDFtnIx-10" target="mpzAm1A_sCC70lDFtnIx-17" edge="1">
          <mxGeometry relative="1" as="geometry">
            <Array as="points">
              <mxPoint x="373" y="680" />
              <mxPoint x="120" y="680" />
            </Array>
          </mxGeometry>
        </mxCell>
        <mxCell id="mpzAm1A_sCC70lDFtnIx-21" value="&lt;span style=&quot;&quot;&gt;Invalid Input&lt;/span&gt;" style="edgeLabel;html=1;align=center;verticalAlign=middle;resizable=0;points=[];fontColor=#FFFFFF;labelBackgroundColor=#000000;" parent="mpzAm1A_sCC70lDFtnIx-20" vertex="1" connectable="0">
          <mxGeometry x="-0.4611" y="-6" relative="1" as="geometry">
            <mxPoint x="-34" y="6" as="offset" />
          </mxGeometry>
        </mxCell>
        <mxCell id="mpzAm1A_sCC70lDFtnIx-22" style="edgeStyle=orthogonalEdgeStyle;rounded=0;orthogonalLoop=1;jettySize=auto;html=1;exitX=0;exitY=0.5;exitDx=0;exitDy=0;entryX=1;entryY=0.5;entryDx=0;entryDy=0;entryPerimeter=0;strokeColor=#FF0000;strokeWidth=3;" parent="1" source="mpzAm1A_sCC70lDFtnIx-13" target="mpzAm1A_sCC70lDFtnIx-17" edge="1">
          <mxGeometry relative="1" as="geometry">
            <Array as="points">
              <mxPoint x="170" y="925" />
              <mxPoint x="170" y="680" />
            </Array>
          </mxGeometry>
        </mxCell>
        <mxCell id="mpzAm1A_sCC70lDFtnIx-24" value="&lt;span style=&quot;&quot;&gt;End of Function&lt;/span&gt;" style="edgeLabel;html=1;align=center;verticalAlign=middle;resizable=0;points=[];fontColor=#FFFFFF;labelBackgroundColor=#000000;" parent="mpzAm1A_sCC70lDFtnIx-22" vertex="1" connectable="0">
          <mxGeometry x="-0.6575" relative="1" as="geometry">
            <mxPoint x="-19" as="offset" />
          </mxGeometry>
        </mxCell>
        <mxCell id="sAepfwaUwmaz3PS5DYTx-2" value="" style="edgeStyle=orthogonalEdgeStyle;rounded=0;orthogonalLoop=1;jettySize=auto;html=1;exitX=0.5;exitY=1;exitDx=0;exitDy=0;entryX=0.5;entryY=0;entryDx=0;entryDy=0;strokeColor=#FFFFFF;strokeWidth=3;" edge="1" parent="1" source="mpzAm1A_sCC70lDFtnIx-8" target="sAepfwaUwmaz3PS5DYTx-1">
          <mxGeometry relative="1" as="geometry">
            <mxPoint x="426" y="498" as="sourcePoint" />
            <mxPoint x="425" y="652" as="targetPoint" />
          </mxGeometry>
        </mxCell>
        <mxCell id="sAepfwaUwmaz3PS5DYTx-1" value="Input Menu Choice" style="html=1;overflow=block;blockSpacing=1;whiteSpace=wrap;fontSize=17;spacing=3.8;strokeColor=#006EAF;rounded=1;absoluteArcSize=1;arcSize=9;fillColor=#1ba1e2;strokeWidth=NaN;lucidId=xdbvFR-ZrNtJ;fontColor=#ffffff;" vertex="1" parent="1">
          <mxGeometry x="357" y="525" width="137" height="90" as="geometry" />
        </mxCell>
      </root>
    </mxGraphModel>
  </diagram>
</mxfile>
